<svg xmlns="http://www.w3.org/2000/svg" viewBox="0 0 50 50"><path fill="#69b0ee" d="M46.13,39.66V49H3.8V39.66A9.11,9.11,0,0,1,5.91,34.9l.14-.16a8.77,8.77,0,0,1,3.39-2.3c2.9-1.07,7-2.46,9.1-3.16l1.2-.4.09,0H30.2l1.21.41c2,.68,6.16,2.09,9.07,3.17A8.73,8.73,0,0,1,46.13,39.66Z"/><path fill="#eab54e" d="M19.69,27.16v4.05a3.66,3.66,0,0,0,3.66,3.66h3.23a3.66,3.66,0,0,0,3.66-3.66V27.16Z"/><path fill="#f2c55a" d="M16.5 17.08s-1.68-1.2-2.3-.08.44 4.83 2.3 4.83M33.45 17.08s1.68-1.2 2.3-.08-.44 4.83-2.3 4.83"/><path fill="#f6c863" d="M34.6,13.76a21.68,21.68,0,0,1-1,7.27S33.1,25,31.73,25.89c0,0-2.66,3.56-6.76,3.56s-6.76-3.56-6.76-3.56C16.85,25,16.3,21,16.3,21a21.68,21.68,0,0,1-1-7.27C20.76,3.28,27.18,3.33,34.6,13.76Z"/><path fill="#575b6d" d="M34.62,18.54h-.56a17.23,17.23,0,0,0-.16-4.28A4.81,4.81,0,0,0,29,10.09a13.28,13.28,0,0,0-4.06.85,13.26,13.26,0,0,0-4.05-.85A4.82,4.82,0,0,0,16,14.26a15.12,15.12,0,0,0-.15,4.28h-.57S13.45,13.47,14,10.36c.44-2.66,1.1-4.61,2.54-6.17a.93.93,0,0,1,1-.26h0a1,1,0,0,0,1-.17A10.72,10.72,0,0,1,24,1.08a11.1,11.1,0,0,1,4.75.48,11.36,11.36,0,0,1,3.69,1.79c2.1,1.68,2.9,3.85,3.42,7S34.62,18.54,34.62,18.54Z"/><path fill="#419be9" d="M31.43,29.45a6.45,6.45,0,0,1-12.9,0v-.17l1.16-.39c0,.19,0,.37,0,.56a5.27,5.27,0,0,0,10.53,0v-.58l1.17.4Z"/><polygon fill="#419be9" points="10.83 48.98 10.39 48.99 9.94 49 9.94 48.99 9.84 39.37 5.91 34.9 6.05 34.74 10.31 39.08 10.38 39.15 10.39 39.27 10.83 48.98"/><polygon fill="#419be9" points="39.12 48.98 39.56 48.99 40.01 49 40.01 48.99 40.12 39.37 44.04 34.9 43.9 34.74 39.64 39.08 39.57 39.15 39.56 39.27 39.12 48.98"/></svg>