<svg xmlns="http://www.w3.org/2000/svg" enable-background="new 0 0 66 66" viewBox="0 0 66 66"><path fill="#7cb5e8" d="M64,11.92v49.51c0,1.1-0.9,2-2,2H4c-1.11,0-2-0.9-2-2V11.92H64z"/><path fill="#fff" d="M64,11.92v39.77H50.56c-21.96,0-39.77-17.81-39.77-39.77v0H64z" opacity=".3"/><path fill="#ffab03" d="M64,4.57v7.35H21.02V2.57H62C63.1,2.57,64,3.47,64,4.57z"/><path fill="#fff" d="M64,4.57v4.27H30.9c-3.46,0-6.27-2.81-6.27-6.27v0H62C63.1,2.57,64,3.47,64,4.57z" opacity=".3"/><path fill="#ef4a51" d="M21.02,2.57v9.35H2V4.57c0-1.1,0.89-2,2-2H21.02z"/><path fill="#fff" d="M21.02,2.57v6.27h-9.35c-3.46,0-6.27-2.81-6.27-6.27v0H21.02z" opacity=".3"/><path fill="#fff" d="M58.95 8.25H24.63c-.55 0-1-.45-1-1s.45-1 1-1h34.32c.55 0 1 .45 1 1S59.51 8.25 58.95 8.25zM7.11 8.25H6.38c-.55 0-1-.45-1-1s.45-1 1-1h.72c.55 0 1 .45 1 1S7.66 8.25 7.11 8.25zM11.87 8.25h-.72c-.55 0-1-.45-1-1s.45-1 1-1h.72c.55 0 1 .45 1 1S12.42 8.25 11.87 8.25zM16.64 8.25h-.72c-.55 0-1-.45-1-1s.45-1 1-1h.72c.55 0 1 .45 1 1S17.19 8.25 16.64 8.25z"/><rect width="52.52" height="17.87" x="6.74" y="18.68" fill="#8aba55"/><path fill="#fff" d="M59.26,18.68v13.1H25.01c-7.23,0-13.1-5.87-13.1-13.1v0H59.26z" opacity=".3"/><path fill="#fff" d="M59.26,18.68H45.6v0c0,1.84,1.49,3.33,3.33,3.33h4.86c1.13,0,2.05,0.92,2.05,2.05v4c0,1.84,1.49,3.33,3.33,3.33h0.09V18.68z" opacity=".3"/><rect width="13.04" height="14.32" x="6.74" y="42.35" fill="#4e6575"/><rect width="13.04" height="14.32" x="26.48" y="42.35" fill="#ffab03"/><rect width="13.05" height="14.32" x="46.21" y="42.35" fill="#e2e2e2"/><path fill="#fff" d="M19.78 42.35v9.82h0c-4.61 0-8.34-3.73-8.34-8.34v-1.48H19.78zM39.52 42.35v9.82h0c-4.61 0-8.34-3.73-8.34-8.34v-1.48H39.52zM59.26 42.35v9.82h0c-4.61 0-8.34-3.73-8.34-8.34v-1.48H59.26z" opacity=".3"/></svg>