<?xml version="1.0" encoding="utf-8"?>
<!-- Generator: Adobe Illustrator 24.3.0, SVG Export Plug-In . SVG Version: 6.00 Build 0)  -->
<svg version="1.1" id="Layer_1" xmlns="http://www.w3.org/2000/svg" xmlns:xlink="http://www.w3.org/1999/xlink" x="0px" y="0px"
	 viewBox="0 0 32 32" style="enable-background:new 0 0 32 32;" xml:space="preserve">
<style type="text/css">
	.st0{fill-rule:evenodd;clip-rule:evenodd;fill:#CFD6DE;}
	.st1{opacity:0.1;fill-rule:evenodd;clip-rule:evenodd;fill:#333333;enable-background:new    ;}
	.st2{fill-rule:evenodd;clip-rule:evenodd;fill:#F9BD94;}
	.st3{fill-rule:evenodd;clip-rule:evenodd;fill:#EF5350;}
	.st4{fill-rule:evenodd;clip-rule:evenodd;fill:#42A5F5;}
	.st5{fill-rule:evenodd;clip-rule:evenodd;fill:#FDC9A6;}
	.st6{fill-rule:evenodd;clip-rule:evenodd;fill:#66BB6A;}
	.st7{opacity:0.1;fill-rule:evenodd;clip-rule:evenodd;fill:#333333;fill-opacity:0.941;enable-background:new    ;}
	.st8{fill-rule:evenodd;clip-rule:evenodd;fill:#AED581;fill-opacity:0.941;}
	.st9{fill-rule:evenodd;clip-rule:evenodd;fill:#FFFFFF;}
</style>
<g transform="matrix(.26458 0 0 .26458 -1088.366 321.58)">
	<path class="st0" d="M4143.7-1133.3v-6.5c4.7,2,10.2-0.3,12.2-5c2-4.7-0.3-10.2-5-12.2c-2.3-1-4.9-1-7.2,0l0,7.1h-7.2l0-7.1
		c-4.7,2-7,7.4-5,12.1c0.9,2.3,2.8,4.1,5,5v7.9L4143.7-1133.3z"/>
	<path class="st1" d="M4143.7-1134.6l-7.2,1.3v1.5l7.2-1.4L4143.7-1134.6L4143.7-1134.6z"/>
	<path class="st2" d="M4158.7-1148.5c0.3,4.7-1.3,8.2-2.5,12l0.9,1c4.2,4.8,10.3,7.5,16.7,7.5c6.3,0,12.3-2.7,16.6-7.4l0.9-1
		c-2-3.8-1.7-8.4-1.9-12.1L4158.7-1148.5z"/>
	<path class="st3" d="M4156.2-1136.6c-1.7,1.2-3.5,1.5-5.6,1.9l0.1,24.5h46v-24.7c0,0-3.6-1.1-5.5-1.5c-4.8,4.8-11,8.4-17.5,8.4
		C4167.2-1128,4160.7-1131.7,4156.2-1136.6L4156.2-1136.6z M4205.7-1133.3v23.1h6v15.9h18.4l-5.1-27.7c-1-5.6-6.2-9-11.4-9.8
		C4211.1-1132.3,4208.1-1132.8,4205.7-1133.3L4205.7-1133.3z M4141.8-1133.1l-7.7,1.4c-5.4,0.7-9.6,4.5-11.5,9.4
		c-1.3,3.3-2.3,9.5-3.2,15.1c-0.9,5.6-1.5,10.6-1.5,10.6l-0.3,2.2h18.3v-15.9h6L4141.8-1133.1z"/>
	<path class="st4" d="M4150.7-1134.7l-2.3,0.4l-6.7,1.2l0.1,22.9h9L4150.7-1134.7z M4135.7-1110.2v15.9h76.1v-15.9H4135.7z"/>
	<path class="st1" d="M4141.7-1112.2v2h9v-2H4141.7z"/>
	<path class="st4" d="M4196.7-1135v24.7h9v-23L4196.7-1135z"/>
	<path class="st1" d="M4196.7-1112.2v2h9v-2H4196.7z"/>
	<path class="st1" d="M4133.7-1112.2v17.9h2v-15.9h6v-2H4133.7z M4150.7-1112.2v2h46v-2H4150.7z"/>
	<path class="st1" d="M4195.1-1135.4v25.2h1.6v-24.7C4196.7-1135,4195.9-1135.2,4195.1-1135.4L4195.1-1135.4z M4141.6-1133.1
		l-1.6,0.3l0.1,22.6h1.6L4141.6-1133.1z"/>
	<path class="st5" d="M4174.1-1174.4c-5.8,0.1-11.5,1.3-16.9,3.6l-2.1,0.9l0.4-0.2c-1.5,0.9-3.2,1.5-5,1.7l-0.2,0h-0.2
		c-1.4,0-2.8-0.4-4-1.2c0.3,2,1.1,3.9,2.9,5l1,0.6c1.2,0.7,2.2,1.8,2.8,3.1l5.8,12.7c2.6,5.8,8.4,9.6,14.9,9.6h1.3
		c6.4,0,12.2-3.8,14.9-9.6l5.8-12.7c0.6-1.3,1.5-2.4,2.8-3.1l1-0.6c1.9-1.1,2.7-3.2,3-5.4v-0.2c-0.9,0.5-1.9,0.8-3,0.8
		c-1.7,0-3.5-0.3-5.1-0.9l-2.8-1.1C4185.7-1173.5,4179.9-1174.5,4174.1-1174.4L4174.1-1174.4z"/>
	<path class="st6" d="M4174.5-1215.4c-7.6-0.1-15.1,2.1-21.8,6.3l-1.1,0.7c-2.6,1.7-4.3,4.7-4.4,8.1l-0.8,18.2h1.8
		c1.3,0,2.5-0.3,3.7-0.8l2.7-1.3c6.1-2.9,12.8-4.5,19.6-4.6c6.8-0.1,13.5,1.2,19.7,3.8l2.6,1.1c1.1,0.5,2.2,0.7,3.4,0.7h2l-0.8-17.1
		c-0.2-3.4-1.8-6.4-4.4-8.1l-1.1-0.7C4189-1213.2,4181.8-1215.4,4174.5-1215.4L4174.5-1215.4z"/>
	<path class="st7" d="M4174.1-1174.3c-5.8,0.1-11.5,1.3-16.9,3.6l-2.1,0.9l0.4-0.2c-1.5,0.9-3.2,1.5-5,1.7l-0.2,0h-0.2
		c-1.5,0-2.9-0.5-4-1.2c0.1,0.7,0.3,1.3,0.5,1.9c0.8,1,1.8,1.5,3,1.5c1.3-0.2,2.6-0.6,3.7-1.4l2.1-1c12-5.6,25.5-5.9,37.7-0.8
		l2.9,1.2c1.2,0.5,2.5,0.8,3.9,0.8c0.7,0,1.3-0.3,1.8-0.8c0.2-0.7,0.4-1.3,0.4-2v-0.2c-0.9,0.5-1.9,0.8-3,0.8
		c-1.7,0-3.5-0.3-5.1-0.9l-2.8-1.1C4185.7-1173.4,4179.9-1174.5,4174.1-1174.3L4174.1-1174.3z"/>
	<path class="st8" d="M4174.2-1189.4c-6.1,0.1-12.2,1.5-18,4.2l-2.7,1.3c-1.7,0.8-3.5,1.2-5.4,1.2h-2.1l-0.5,10.6
		c-0.1,2.4,1.6,4.5,3.7,4.6c0.1,0,0.1,0,0.2,0c1.3-0.2,2.6-0.6,3.7-1.4l2.1-1c12-5.6,25.5-5.9,37.7-0.8l2.9,1.2
		c1.2,0.5,2.5,0.8,3.9,0.8c1.5,0,2.8-1.4,2.8-3.1c0-0.1,0-0.1,0-0.2l-0.6-11.9h-2.2c-1.7,0-3.3-0.3-4.9-1l-2.6-1.1
		C4186.5-1188.3,4180.4-1189.5,4174.2-1189.4L4174.2-1189.4z"/>
	<path class="st9" d="M4166.2-1205.1h15.7v7.8h-15.7V-1205.1z"/>
</g>
</svg>
