<?xml version="1.0" encoding="utf-8"?>
<!-- Generator: Adobe Illustrator 24.3.0, SVG Export Plug-In . SVG Version: 6.00 Build 0)  -->
<svg version="1.1" id="Layer_1" xmlns="http://www.w3.org/2000/svg" xmlns:xlink="http://www.w3.org/1999/xlink" x="0px" y="0px"
	 viewBox="0 0 50 50" style="enable-background:new 0 0 50 50;" xml:space="preserve">
<style type="text/css">
	.st0{fill:#3C3B42;}
	.st1{fill:#2B2A2F;}
	.st2{fill:#FFCC5C;}
	.st3{fill:#F7B546;}
	.st4{fill:#EFF2FA;}
	.st5{fill:#8B6946;}
	.st6{fill:#75563A;}
	.st7{fill:#90CFF1;}
	.st8{opacity:0.25;fill:#EFF2FA;enable-background:new    ;}
	.st9{fill:#F04C4D;}
	.st10{fill:#E13340;}
	.st11{fill:#D5E5F1;}
</style>
<g>
	<path class="st0" d="M42.9,4.6v4.1H6.3V4.6c0-1.2,1.1-2,2-2h32.6C42,2.6,42.9,3.5,42.9,4.6z"/>
	<path class="st1" d="M40.8,2.6h-1.7c1.2,0,2.1,0.9,2.1,2c0,0.6-0.5,1.1-1.1,1.1H6.3v3.2h36.6V4.4C42.9,3.5,42,2.6,40.8,2.6z"/>
	<path class="st2" d="M2.2,14.8h44.7v30.6H2.2V14.8z"/>
	<path class="st3" d="M22.5,25H10.3c-1.2,0-2,0.9-2,2l0,0v12.2c0,1.2,0.9,2,2,2h12.2c1.2,0,2-0.9,2-2V27C24.6,25.9,23.7,25,22.5,25z
		 M22.5,39.3H10.3V27.1h12.2V39.3z M46.9,17.9H2.2v5C2.5,23,3,23,3.3,23c1.7,0,3.2-1.4,3.2-3.2c0,1.7,1.4,3.2,3.2,3.2
		s3.2-1.4,3.2-3.2c0,1.7,1.4,3.2,3.2,3.2s3.2-1.4,3.2-3.2c0,1.7,1.4,3.2,3.2,3.2c1.7,0,3.2-1.4,3.2-3.2c0,1.7,1.4,3.2,3.2,3.2
		c1.8,0,3.2-1.4,3.2-3.2c0,1.7,1.4,3.2,3.2,3.2c1.8,0,3.2-1.4,3.2-3.2c0,1.7,1.4,3.2,3.2,3.2s3.2-1.4,3.2-3.2c0,1.7,1.4,3.2,3.2,3.2
		c0.5,0,0.8-0.2,1.1-0.2v-5C48.4,17.9,46.9,17.9,46.9,17.9z"/>
	<path class="st4" d="M8.2,27v10.2c0,1.2,0.9,2,2,2h12.2c1.2,0,2-0.9,2-2V27c0-1.2-0.9-2-2-2h-12C9.3,25,8.2,25.9,8.2,27z"/>
	<path class="st5" d="M42.9,31.2v14.3H30.7V31.2c0-3.5,2.7-6.2,6.2-6.2C40.3,25,42.9,27.7,42.9,31.2z"/>
	<path class="st6" d="M37.5,25.2c-0.3,0-0.6-0.2-0.9-0.2l0,0l0,0c-0.3,0-0.6,0-0.9,0.2c-0.3,0-0.5,0.2-0.8,0.2
		c2.7,0.8,4.5,3.2,4.5,6v8.1c0,1.2-0.9,2-2,2h-6.9v4.1h12.2V31.2C42.9,28.2,40.6,25.5,37.5,25.2z"/>
	<path class="st0" d="M49,47.4H0.1v-2c0-1.2,0.9-2,2-2h44.7c1.2,0,2,0.9,2,2L49,47.4L49,47.4z"/>
	<path class="st1" d="M46.9,43.3h-4.1c1.2,0,2,0.9,2,2v2h4.1v-2C49,44.2,48,43.3,46.9,43.3z"/>
	<path class="st7" d="M9.4,26.1h14.3v12.2H9.4V26.1z"/>
	<path class="st8" d="M24,30.1c-0.5-0.5-1.1-0.5-1.4,0l-2.6,2.6c-0.5,0.5-0.5,1.1,0,1.4c0.5,0.5,1.1,0.5,1.4,0l0,0l2.6-2.6
		C24.4,31.3,24.4,30.6,24,30.1z M17.8,34.8l-0.5,0.5c-0.5,0.5-0.5,1.1,0,1.4c0.5,0.5,1.1,0.5,1.4,0l0.5-0.5c0.5-0.5,0.5-1.1,0-1.4
		C18.9,34.3,18.3,34.3,17.8,34.8z M20.7,30c0.5-0.5,0.5-1.1,0-1.4c-0.5-0.5-1.1-0.5-1.4,0L16,31.9c-0.5,0.5-0.5,1.1,0,1.4
		c0.5,0.5,1.1,0.5,1.4,0L20.7,30z M13.5,34.2L13,34.6c-0.5,0.5-0.5,1.1,0,1.4c0.5,0.3,1.1,0.5,1.4,0l0.5-0.5c0.5-0.5,0.5-1.1,0-1.4
		C14.5,33.9,13.8,33.9,13.5,34.2z"/>
	<path class="st4" d="M22.5,25H10.3c-1.2,0-2,0.9-2,2l0,0v10.2c0,1.2,0.9,2,2,2h12.2c1.2,0,2-0.9,2-2V27C24.6,25.9,23.7,25,22.5,25z
		 M22.5,37.2H10.3V27h12.2V37.2z"/>
	<circle class="st0" cx="33.7" cy="37.6" r="1.1"/>
	<path class="st9" d="M45.1,7.9c-0.3-0.8-1.1-1.2-1.8-1.2H5.5C4.6,6.7,4,7.1,3.7,7.9l-3.6,8v2c0,1.7,1.4,3.2,3.2,3.2
		s3.2-1.4,3.2-3.2c0,1.7,1.4,3.2,3.2,3.2s3-1.5,3-3.2c0,1.7,1.4,3.2,3.2,3.2s3.2-1.4,3.2-3.2c0,1.7,1.4,3.2,3.2,3.2
		c1.7,0,3.2-1.4,3.2-3.2c0,1.7,1.4,3.2,3.2,3.2c1.7,0,3.2-1.4,3.2-3.2c0,1.7,1.4,3.2,3.2,3.2s3.2-1.4,3.2-3.2c0,1.7,1.4,3.2,3.2,3.2
		c1.8,0,3.2-1.4,3.2-3.2c0,1.7,1.4,3.2,3.2,3.2c1.7,0,2.9-1.4,2.9-3.2v-2L45.1,7.9z"/>
	<path class="st9" d="M29.7,6.7h-5.1v11.3c0,1.7,1.4,3.2,3.2,3.2c1.8,0,3.2-1.4,3.2-3.2v-2.1L29.7,6.7z M9.4,6.7H5.5
		C4.6,6.7,4,7.1,3.7,7.9l-3.6,8v2c0,1.7,1.4,3.2,3.2,3.2s3.2-1.4,3.2-3.2v-2L9.4,6.7z"/>
	<path class="st4" d="M14.5,6.7H9.4l-3.2,9v2.1c0,1.7,1.4,3.2,3.2,3.2s3.2-1.4,3.2-3.2v-2L14.5,6.7z M24.6,6.7h-5.1l-1.1,9.2v2
		c0,1.7,1.4,3.2,3.2,3.2c1.8,0,3.2-1.4,3.2-3.2L24.6,6.7L24.6,6.7z M34.8,6.7h-5.1l0.9,9.3v2c0,1.7,1.4,3.2,3.2,3.2
		c1.7,0,3.2-1.4,3.2-3.2v-2.1L34.8,6.7z"/>
	<path class="st9" d="M39.9,6.7h-5.1l2,9.2v2c0,1.7,1.4,3.2,3.2,3.2c1.8,0,3.2-1.4,3.2-3.2v-2L39.9,6.7z"/>
	<path class="st4" d="M45.4,7.9c-0.3-0.8-1.1-1.2-1.8-1.2h-3.8l3.2,9.2v2c0,1.7,1.4,3.2,3.2,3.2c1.7,0,3.2-1.4,3.2-3.2v-2L45.4,7.9z
		"/>
	<path class="st9" d="M19.5,6.7h-5.1l-2,9v2.1c0,1.7,1.4,3.2,3.2,3.2s3-1.5,3-3.2v-2L19.5,6.7z"/>
	<path class="st10" d="M6.3,15.8v2c0,1.7-1.4,3.2-3.2,3.2s-3-1.2-3-3v-2.1"/>
	<path class="st11" d="M12.4,15.8v2c0,1.7-1.4,3.2-3.2,3.2s-3.2-1.5-3.2-3.2v-2"/>
	<path class="st10" d="M18.4,15.8v2c0,1.7-1.4,3.2-3.2,3.2s-3-1.5-3-3.2v-2"/>
	<path class="st11" d="M24.6,15.8v2c0,1.7-1.4,3.2-3.2,3.2c-1.8,0-3.2-1.4-3.2-3.2v-2"/>
	<path class="st10" d="M30.7,15.8v2c0,1.7-1.4,3.2-3.2,3.2c-1.8,0-3-1.5-3-3.2v-2"/>
	<path class="st11" d="M36.9,15.8v2c0,1.7-1.4,3.2-3.2,3.2c-1.7,0-3.2-1.5-3.2-3.2v-2"/>
	<path class="st10" d="M42.9,15.8v2c0,1.7-1.4,3.2-3.2,3.2c-1.8,0-3.2-1.4-3.2-3.2v-2"/>
	<path class="st11" d="M49,15.8v2c0,1.7-1.4,3.2-3.2,3.2s-3.2-1.4-3.2-3.2v-2"/>
</g>
</svg>
