<?xml version="1.0" encoding="utf-8"?>
<!-- Generator: Adobe Illustrator 24.3.0, SVG Export Plug-In . SVG Version: 6.00 Build 0)  -->
<svg version="1.1" id="Layer_1" xmlns="http://www.w3.org/2000/svg" xmlns:xlink="http://www.w3.org/1999/xlink" x="0px" y="0px"
	 viewBox="0 0 50 50" style="enable-background:new 0 0 50 50;" xml:space="preserve">
<style type="text/css">
	.st0{fill:#004463;}
	.st1{fill:#607D95;}
	.st2{fill:#AE89BF;}
	.st3{fill:#9675B4;}
	.st4{fill:#8D6DAF;}
	.st5{fill:#F0C9AE;}
	.st6{fill:#E2B698;}
	.st7{fill:#8A6845;}
	.st8{fill:#745539;}
</style>
<g>
	<path class="st0" d="M36.4,16.8V20c0,1.9-1.7,3.9-3.6,3.9h-4.7c-0.7,0-1.3,0.4-1.3,1.3c0,0.7,0.4,1.3,1.3,1.3h4.7
		c3.1,0,5.5-2.9,6-5.8v-3.2h-2.3V16.8z"/>
	<path class="st1" d="M16.3,19.6h-3.2c-0.9,0-1.7-0.7-1.7-1.7v-1.7c0-0.9,0.7-1.7,1.7-1.7h3.2V19.6z M33.7,19.6h3.2
		c0.9,0,1.7-0.7,1.7-1.7v-1.7c0-0.9-0.7-1.7-1.7-1.7h-3.2C33.7,14.3,33.7,19.6,33.7,19.6z"/>
	<path class="st2" d="M19.5,32.4l-8.9,3.1c-3.2,1.3-5.4,4.2-5.4,7.6v7h39.9v-7c0-3.6-2.2-6.6-5.4-7.4l-9-3.2H19.5z"/>
	<path class="st3" d="M23.8,32.1h-4.7l-8.9,3.1c-2.8,0.9-5.4,4.2-5.4,7.4v7.3h3.2v-7c0-2.3,1.7-4.2,3.8-5l3.8-1.3
		c1.5-0.4,3.1-0.3,4.2,0.7c0.3,0.3,1.3,0.7,1.5,0.9c0.9,0.7,2.3,0.7,3.2,0c1.7-0.9,4.1-2.8,4.1-4.7l-0.4-1.7
		C28.1,32.1,23.8,32.1,23.8,32.1z M44.7,50v-7c0-1.5-0.4-2.8-1.3-4.1c-4.7,0.4-8.4,4.7-8.4,9.3V50C34.9,50,44.7,50,44.7,50z"/>
	<path class="st3" d="M5.1,50v-7c0-1.5,0.4-2.8,1.3-4.1c4.7,0.4,8.4,4.7,8.4,9.3V50C14.8,50,5.1,50,5.1,50z"/>
	<path class="st4" d="M8.3,42.9c0-1.3,0.4-2.2,1.3-3.1c-1.3-0.7-2.2-0.9-3.2-1.3c-0.9,1.2-1.3,2.6-1.3,4.1v7h3.2
		C8.3,49.7,8.3,42.9,8.3,42.9z"/>
	<path class="st5" d="M19.2,26v6.4c0,3.1,5.5,5.5,5.5,5.5s5.5-2.6,5.5-5.5V26C30.4,26,19.2,26,19.2,26z"/>
	<path class="st6" d="M19.2,29.2c1.7,0.9,3.6,1.7,5.5,1.7s4.1-0.7,5.5-1.7v-3.1H19v3.1H19.2z"/>
	<path class="st6" d="M22.4,32.4v-4.1h-3.2v4.1c0,3.1,5.5,5.5,5.5,5.5s0.7-0.3,1.7-0.9C24.7,36.2,22.4,34.3,22.4,32.4z"/>
	<path class="st5" d="M14.1,8.9v9.2c0,6,4.7,10.8,10.8,10.8s10.8-4.7,10.8-10.8V8.9H14.1z"/>
	<path class="st6" d="M18.7,17.8V8.9h-4.7v9.2c0,6,4.7,10.8,10.8,10.8c0.7,0,1.7,0,2.3-0.3C22.2,27.3,18.7,23.1,18.7,17.8z"/>
	<path class="st7" d="M35.6,15.5l1.9-5.2c0.4-2.6-1.5-5-4.1-5c0-3.1-2.8-5.4-5.5-4.7L16.3,2.5c-2.8,0.4-4.5,3.1-4.1,6l1.9,7.4
		l3.8-3.2c0.4-0.4,1.3-0.7,1.9-0.7h10c0.7,0,1.5,0.3,1.9,0.7L35.6,15.5z"/>
	<path class="st8" d="M16.7,8.1c-0.4-2.8,1.5-5.4,4.1-6l9.8-1.7c-0.7-0.3-1.7-0.4-2.6-0.3L16.3,1.9c-2.8,0.4-4.5,3.1-4.1,6l1.9,7.4
		l3.8-3.1C17.7,12.6,16.7,8.1,16.7,8.1z"/>
	<path class="st0" d="M37.7,22.6h-2.3c-0.7,0.7-1.5,1.3-2.6,1.3h-4.7c-0.7,0-1.3,0.4-1.3,1.3c0,0.7,0.4,1.3,1.3,1.3h4.7
		c2.3,0,4.5-1.6,5.3-3.8C38,22.5,37.7,22.6,37.7,22.6z"/>
</g>
</svg>
